<?xml version="1.0" standalone="no"?>
<!DOCTYPE svg PUBLIC "-//W3C//DTD SVG 20010904//EN"
 "http://www.w3.org/TR/2001/REC-SVG-20010904/DTD/svg10.dtd">
<svg version="1.0" xmlns="http://www.w3.org/2000/svg"
 width="1516.000000pt" height="475.000000pt" viewBox="0 0 1516.000000 475.000000"
 preserveAspectRatio="xMidYMid meet">

<g transform="translate(0.000000,475.000000) scale(0.100000,-0.100000)"
fill="#000000" stroke="none">
<path d="M1621 4233 c-14 -12 -71 -161 -180 -468 -295 -834 -678 -1901 -695
-1936 -47 -99 -142 -160 -281 -180 -44 -7 -83 -17 -87 -23 -9 -13 -11 -278 -2
-300 6 -14 69 -16 614 -16 399 0 611 3 615 10 10 16 9 300 -1 310 -5 4 -87 10
-182 12 l-174 3 -24 28 c-13 15 -24 39 -24 52 0 28 148 493 163 513 7 9 121
12 508 12 l498 0 60 -182 c111 -342 117 -370 80 -404 -19 -17 -41 -19 -198
-22 -101 -2 -181 -8 -188 -14 -18 -14 -18 -289 -1 -306 9 -9 178 -12 699 -12
617 0 687 2 693 16 9 22 7 287 -2 301 -4 6 -41 16 -82 22 -87 12 -128 27 -187
70 -77 56 -103 110 -289 611 -454 1221 -705 1884 -720 1901 -16 18 -37 19
-304 19 -259 0 -290 -2 -309 -17z m424 -1113 c102 -283 183 -520 181 -527 -7
-17 -711 -19 -721 -3 -6 9 314 988 337 1033 5 10 11 17 13 15 2 -2 87 -235
190 -518z"/>
<path d="M13412 4238 c-15 -15 -17 -264 -3 -273 5 -3 68 -7 140 -9 143 -4 174
-14 215 -69 20 -28 21 -40 24 -404 2 -207 0 -383 -3 -392 -5 -12 -9 -10 -23
10 -98 144 -274 268 -454 319 -103 30 -262 37 -364 16 -216 -43 -385 -162
-524 -365 -83 -124 -146 -275 -182 -444 -29 -136 -31 -425 -5 -562 55 -278
175 -508 336 -642 76 -63 216 -133 316 -159 102 -26 303 -24 408 4 173 47 319
154 427 311 30 44 58 80 63 81 4 0 7 -73 7 -162 0 -90 4 -169 8 -176 7 -10 99
-12 428 -10 l419 3 3 141 3 141 -115 6 c-126 7 -164 20 -193 64 -17 25 -18
104 -21 1292 -2 906 -5 1268 -13 1278 -16 18 -879 19 -897 1z m1 -1158 c171
-53 304 -226 354 -460 25 -121 25 -411 0 -530 -51 -236 -173 -404 -344 -471
-83 -33 -233 -33 -315 0 -196 77 -300 326 -301 721 -1 160 9 244 44 390 49
198 138 310 282 355 66 21 204 18 280 -5z"/>
<path d="M7892 3469 c-128 -16 -269 -80 -386 -174 -38 -30 -76 -55 -84 -55 -8
0 -41 18 -73 39 -105 70 -328 146 -504 171 -93 13 -278 13 -368 -1 -173 -25
-368 -95 -486 -173 -149 -99 -260 -264 -295 -438 -20 -97 -20 -271 -1 -362 31
-146 114 -277 225 -355 36 -25 67 -50 68 -55 2 -6 -21 -16 -50 -23 -218 -56
-338 -214 -338 -442 1 -187 101 -311 291 -360 81 -21 80 -22 -34 -51 -146 -37
-242 -103 -295 -205 -37 -73 -42 -188 -11 -270 31 -85 127 -179 231 -229 90
-43 257 -88 425 -113 170 -26 744 -25 917 0 536 81 789 275 812 626 18 283
-113 489 -368 578 -135 47 -213 53 -743 53 -510 1 -597 6 -679 45 -95 45 -113
144 -40 225 46 51 74 56 175 30 247 -63 503 -65 737 -4 333 86 509 233 597
499 22 64 28 105 32 205 6 148 -8 224 -63 362 -21 51 -37 102 -37 113 4 51
143 135 266 162 106 22 287 5 287 -27 0 -3 -29 -25 -65 -48 -65 -41 -119 -104
-142 -165 -19 -52 -16 -159 7 -220 43 -113 130 -169 266 -170 70 0 91 4 138
27 182 89 238 327 129 554 -39 82 -144 183 -217 211 -107 40 -220 54 -324 40z
m-1110 -280 c51 -12 124 -58 158 -101 121 -154 148 -546 52 -752 -36 -77 -83
-125 -158 -162 -74 -36 -210 -45 -297 -20 -71 21 -145 79 -179 142 -55 102
-73 192 -73 374 0 176 11 241 59 345 72 159 229 221 438 174z m433 -2024 c55
-15 112 -48 143 -85 31 -36 54 -105 56 -164 2 -139 -112 -236 -329 -281 -123
-25 -331 -38 -500 -32 -342 14 -509 69 -569 189 -89 178 58 348 324 377 41 5
242 9 445 10 305 1 381 -2 430 -14z"/>
<path d="M4284 3435 c-224 -40 -392 -130 -505 -269 -225 -276 -167 -660 128
-839 122 -74 252 -119 613 -212 289 -74 386 -111 452 -175 72 -70 85 -142 42
-228 -29 -58 -65 -92 -134 -127 -135 -68 -376 -50 -569 42 -75 36 -108 59
-165 117 -86 86 -128 155 -170 278 l-32 93 -160 0 -159 0 0 -400 0 -400 105
-6 c58 -4 121 -3 140 2 42 10 83 50 104 101 9 20 20 40 26 43 6 4 32 -9 58
-28 171 -124 381 -181 672 -181 351 0 601 111 737 325 61 97 78 167 78 319 0
123 -3 142 -28 210 -52 143 -167 260 -341 347 -127 64 -236 101 -512 177 -133
36 -277 79 -322 96 -100 39 -168 95 -178 148 -8 44 9 113 37 152 79 106 343
143 536 73 181 -65 272 -149 359 -328 30 -62 61 -116 70 -119 30 -12 249 -7
262 6 9 9 12 100 12 349 0 409 9 382 -128 383 -105 1 -129 -11 -173 -85 -14
-24 -32 -45 -41 -47 -9 -2 -55 19 -103 47 -222 127 -484 178 -711 136z"/>
<path d="M8705 3439 c-107 -16 -165 -30 -165 -40 0 -5 13 -33 29 -62 16 -28
34 -68 40 -88 l12 -36 142 -6 c195 -8 285 -35 357 -107 59 -59 84 -122 84
-215 1 -165 -90 -279 -279 -351 -39 -14 -167 -50 -285 -80 -273 -69 -354 -96
-465 -152 -198 -102 -295 -263 -295 -493 0 -232 94 -407 260 -487 212 -101
462 -107 722 -18 126 43 194 85 280 173 67 69 88 81 88 47 0 -33 53 -124 94
-162 90 -83 195 -117 356 -116 284 3 459 134 524 394 21 84 38 240 34 310 l-3
55 -120 3 c-164 4 -158 9 -166 -160 -7 -145 -20 -206 -55 -243 -40 -43 -114
-29 -146 28 -10 17 -14 176 -19 667 -5 554 -8 653 -22 699 -48 159 -138 262
-299 340 -167 81 -260 102 -468 106 -96 2 -202 0 -235 -6z m498 -1234 c0 -201
-11 -265 -65 -375 -37 -75 -123 -167 -188 -200 -143 -73 -325 -65 -408 18 -83
83 -93 273 -21 386 41 66 99 103 317 202 108 49 225 103 262 121 107 52 103
58 103 -152z"/>
<path d="M11571 3434 c-128 -34 -222 -111 -360 -293 l-71 -93 0 161 c0 148 -1
161 -19 171 -31 16 -892 14 -914 -3 -15 -11 -17 -29 -15 -147 l3 -135 165 -5
c184 -6 204 -12 237 -73 17 -30 18 -78 18 -672 0 -618 -1 -641 -20 -672 -30
-51 -74 -66 -208 -71 l-118 -4 3 -142 3 -141 625 0 625 0 0 140 0 140 -135 6
c-152 6 -194 19 -225 72 -19 30 -20 56 -23 437 -4 441 3 553 43 677 64 204
227 367 403 404 97 20 262 -3 262 -37 0 -7 -12 -16 -27 -20 -115 -25 -171 -63
-209 -141 -23 -47 -28 -70 -28 -128 0 -110 50 -186 158 -243 45 -24 62 -27
146 -27 76 0 104 4 142 22 208 96 270 392 127 615 -86 134 -263 218 -454 217
-44 0 -104 -7 -134 -15z"/>
</g>
</svg>
